<?xml version="1.0" encoding="UTF-8" standalone="no"?>
<svg
   xmlns:dc="http://purl.org/dc/elements/1.1/"
   xmlns:cc="http://creativecommons.org/ns#"
   xmlns:rdf="http://www.w3.org/1999/02/22-rdf-syntax-ns#"
   xmlns:svg="http://www.w3.org/2000/svg"
   xmlns="http://www.w3.org/2000/svg"
   viewBox="0 0 253 131"
   height="131"
   width="253"
   xml:space="preserve"
   id="svg2"
   version="1.1"><metadata
     id="metadata8"><rdf:RDF><cc:Work
         rdf:about=""><dc:format>image/svg+xml</dc:format><dc:type
           rdf:resource="http://purl.org/dc/dcmitype/StillImage" /><dc:title></dc:title></cc:Work></rdf:RDF></metadata><defs
     id="defs6"><clipPath
       id="clipPath18"
       clipPathUnits="userSpaceOnUse"><path
         id="path16"
         d="M 0,841.89 H 595.276 V 0 H 0 Z" /></clipPath><clipPath
       id="clipPath34"
       clipPathUnits="userSpaceOnUse"><path
         id="path32"
         d="M 0,841.89 H 595.276 V 0 H 0 Z" /></clipPath><clipPath
       id="clipPath220"
       clipPathUnits="userSpaceOnUse"><path
         id="path218"
         d="M 0,841.89 H 595.276 V 0 H 0 Z" /></clipPath><clipPath
       id="clipPath398"
       clipPathUnits="userSpaceOnUse"><path
         id="path396"
         d="M 0,841.89 H 595.276 V 0 H 0 Z" /></clipPath><clipPath
       id="clipPath602"
       clipPathUnits="userSpaceOnUse"><path
         id="path600"
         d="M 0,841.89 H 595.276 V 0 H 0 Z" /></clipPath><clipPath
       id="clipPath810"
       clipPathUnits="userSpaceOnUse"><path
         id="path808"
         d="M 0,841.89 H 595.276 V 0 H 0 Z" /></clipPath><clipPath
       id="clipPath1014"
       clipPathUnits="userSpaceOnUse"><path
         id="path1012"
         d="M 0,841.89 H 595.276 V 0 H 0 Z" /></clipPath><clipPath
       id="clipPath1138"
       clipPathUnits="userSpaceOnUse"><path
         id="path1136"
         d="M 0,841.89 H 595.276 V 0 H 0 Z" /></clipPath><clipPath
       id="clipPath1234"
       clipPathUnits="userSpaceOnUse"><path
         id="path1232"
         d="M 0,841.89 H 595.276 V 0 H 0 Z" /></clipPath><clipPath
       id="clipPath1278"
       clipPathUnits="userSpaceOnUse"><path
         id="path1276"
         d="M 0,841.89 H 595.276 V 0 H 0 Z" /></clipPath><clipPath
       id="clipPath1316"
       clipPathUnits="userSpaceOnUse"><path
         id="path1314"
         d="M 0,841.89 H 595.276 V 0 H 0 Z" /></clipPath><clipPath
       id="clipPath1360"
       clipPathUnits="userSpaceOnUse"><path
         id="path1358"
         d="M 0,841.89 H 595.276 V 0 H 0 Z" /></clipPath><clipPath
       id="clipPath1416"
       clipPathUnits="userSpaceOnUse"><path
         id="path1414"
         d="M 0,841.89 H 595.276 V 0 H 0 Z" /></clipPath></defs><g
     transform="matrix(1.3333333,0,0,-1.3333333,0,130.99998)"
     id="g10"><g
       transform="translate(-22.566198,-706.22842)"
       id="g6440"><g
         id="g12"
         style="fill:#0f399c;fill-opacity:1"><g
           id="g14"
           clip-path="url(#clipPath18)"
           style="fill:#0f399c;fill-opacity:1"><g
             id="g20"
             transform="translate(152.5537,706.4982)"
             style="fill:#0f399c;fill-opacity:1"><path
               d="m 0,0 h -70.225 c -0.276,0 -0.5,0.224 -0.5,0.5 v 8.78 c 0,0.276 0.224,0.5 0.5,0.5 H 0 c 0.276,0 0.5,-0.224 0.5,-0.5 V 0.5 C 0.5,0.224 0.276,0 0,0"
               style="fill:#0f399c;fill-opacity:1;fill-rule:evenodd;stroke:none"
               id="path22" /></g></g></g><text
         transform="scale(1,-1)"
         style="font-variant:normal;font-weight:bold;font-stretch:normal;font-size:6.73220015px;font-family:'Bw Modelica';-inkscape-font-specification:BwModelica-Bold;writing-mode:lr-tb;fill:#ffffff;fill-opacity:1;fill-rule:nonzero;stroke:none"
         id="text26"
         x="99.351807"
         y="-708.9209"><tspan
           id="tspan24"
           x="99.351807"
           y="-708.9209">ROMÂNIA</tspan></text>
<g
         id="g6169"
         style="fill:#0f399c;fill-opacity:1"><g
           transform="translate(118.6929,772.9494)"
           id="g40"
           style="fill:#0f399c;fill-opacity:1"><path
             id="path42"
             style="fill:#0f399c;fill-opacity:1;fill-rule:evenodd;stroke:none"
             d="m 0,0 c -6.479,1.523 -22.049,5.294 -27.295,13.635 -0.193,0.315 -0.677,0.17 -0.677,-0.193 V 13.345 C -27.537,1.886 -8.341,-3.095 0.266,-5.125 h 0.048 l 0.169,-0.024 c 0.049,0 0.121,0 0.17,0.024 0.411,0.169 0.894,0.314 1.354,0.435 0.677,0.169 1.402,0.314 2.103,0.338 0.774,0.073 1.523,0.073 2.466,-0.097 0.87,-0.169 1.862,-0.507 3.094,-1.039 0.702,-0.29 1.644,-0.604 2.66,-0.919 0.193,-0.048 0.362,0.145 0.29,0.339 C 10.783,-2.297 6.503,-1.523 0,0" /></g><g
           transform="translate(102.084,765.8659)"
           id="g44"
           style="fill:#0f399c;fill-opacity:1"><path
             id="path46"
             style="fill:#0f399c;fill-opacity:1;fill-rule:evenodd;stroke:none"
             d="m 0,0 c 1.716,0.459 3.554,0.943 5.173,1.644 l 0.025,0.024 c 0.048,0.024 0.096,0.048 0.145,0.073 0.266,0.145 0.241,0.58 -0.073,0.676 -6.527,1.959 -12.451,4.812 -15.98,10.179 -0.218,0.314 -0.677,0.169 -0.677,-0.194 V 11.967 11.943 C -11.049,6.286 -7.277,3.143 0,0" /></g><g
           transform="translate(118.1851,776.0925)"
           id="g48"
           style="fill:#0f399c;fill-opacity:1"><path
             id="path50"
             style="fill:#0f399c;fill-opacity:1;fill-rule:evenodd;stroke:none"
             d="m 0,0 c 7.543,-1.813 13.926,-3.046 15.739,-8.147 0.048,-0.194 0.338,-0.218 0.435,-0.049 1.064,1.862 1.765,3.457 1.668,4.956 -0.121,1.596 -1.717,3.554 -5.367,4.69 C 8.8,2.611 7.253,2.901 1.378,4.593 c -5.73,1.62 -22.871,6.044 -28.407,14.458 -0.121,0.217 -0.435,0.12 -0.435,-0.121 l -0.024,-0.677 V 18.229 C -27.053,7.253 -7.76,1.861 0,0" /></g><g
           transform="translate(131.1196,780.9274)"
           id="g52"
           style="fill:#0f399c;fill-opacity:1"><path
             id="path54"
             style="fill:#0f399c;fill-opacity:1;fill-rule:evenodd;stroke:none"
             d="m 0,0 c 4.4,-1.112 9.404,-4.182 8.051,-9.38 -0.266,-0.967 -1.161,-3.53 -3.022,-5.585 -0.218,-0.218 -0.073,-0.58 0.193,-0.629 0.29,-0.024 0.532,-0.072 0.774,-0.096 0.846,-0.121 1.668,-0.29 2.442,-0.484 0.265,-0.048 0.556,0.024 0.749,0.218 5.875,6.068 7.156,14.626 -1.088,19.727 -6.963,4.328 -36.265,5.852 -47.869,19.39 -0.242,0.242 -0.653,0.097 -0.653,-0.242 V 21.565 C -40.35,10.589 -14.893,3.506 0,0" /></g><g
           transform="translate(146.4233,757.0173)"
           id="g56"
           style="fill:#0f399c;fill-opacity:1"><path
             id="path58"
             style="fill:#0f399c;fill-opacity:1;fill-rule:evenodd;stroke:none"
             d="m 0,0 -1.088,2.539 c -0.145,0.338 -0.411,0.604 -0.774,0.749 -2.031,0.846 -5.198,1.475 -7.712,1.861 -2.756,0.363 -7.156,1.403 -9.356,2.394 -2.152,0.943 -3.337,1.04 -4.521,0.967 -1.209,-0.097 -2.297,-0.363 -3.192,-0.846 -0.749,-0.363 -1.378,-0.846 -1.716,-1.523 -0.073,-0.145 -0.29,-0.145 -0.363,0 -0.338,0.677 -0.966,1.16 -1.716,1.523 -0.871,0.483 -1.982,0.749 -3.167,0.846 -1.209,0.073 -2.611,-0.097 -4.787,-1.064 -2.176,-0.943 -6.335,-1.934 -9.09,-2.297 -2.515,-0.362 -5.585,-1.015 -7.64,-1.837 -0.363,-0.145 -0.653,-0.387 -0.774,-0.773 l -0.895,-2.563 c -0.048,-0.194 0.073,-0.363 0.267,-0.363 H -0.266 C -0.073,-0.387 0.072,-0.193 0,0" /></g></g><g
         id="g6175"
         style="fill:#0f399c;fill-opacity:1"><text
           transform="scale(1,-1)"
           y="-726.237"
           x="22.022877"
           id="text26-3"
           style="font-variant:normal;font-weight:bold;font-stretch:normal;font-size:14.55437469px;font-family:'Bw Modelica';-inkscape-font-specification:BwModelica-Bold;writing-mode:lr-tb;fill:#0f399c;fill-opacity:1;fill-rule:nonzero;stroke:none;stroke-width:2.16190457"><tspan
             id="tspan5327"
             y="-726.237"
             x="22.022877"
             style="font-style:normal;font-variant:normal;font-weight:800;font-stretch:normal;font-family:'Bw Modelica';-inkscape-font-specification:'Bw Modelica Ultra-Bold';fill:#0f399c;fill-opacity:1;stroke-width:2.16190457">MIȘCAREA DE REFORMĂ</tspan></text>
<text
           style="font-variant:normal;font-weight:bold;font-stretch:normal;font-size:11.17440224px;font-family:'Bw Modelica';-inkscape-font-specification:BwModelica-Bold;writing-mode:lr-tb;fill:#0f399c;fill-opacity:1;fill-rule:nonzero;stroke:none;stroke-width:1.65984404"
           id="text5352"
           x="29.828461"
           y="-741.64764"
           transform="scale(1,-1)"><tspan
             style="font-style:normal;font-variant:normal;font-weight:600;font-stretch:normal;font-family:'Bw Modelica';-inkscape-font-specification:'Bw Modelica Semi-Bold';fill:#0f399c;fill-opacity:1;stroke-width:1.65984404"
             x="29.828461"
             y="-741.64764"
             id="tspan5350">ADVENTIȘTI DE ZIUA A ȘAPTEA</tspan></text>
</g></g></g></svg>