<?xml version="1.0" encoding="UTF-8" standalone="no"?>
<svg
   xmlns:dc="http://purl.org/dc/elements/1.1/"
   xmlns:cc="http://creativecommons.org/ns#"
   xmlns:rdf="http://www.w3.org/1999/02/22-rdf-syntax-ns#"
   xmlns:svg="http://www.w3.org/2000/svg"
   xmlns="http://www.w3.org/2000/svg"
   viewBox="0 0 327 64.999999"
   height="65"
   width="327"
   xml:space="preserve"
   id="svg2"
   version="1.1"><metadata
     id="metadata8"><rdf:RDF><cc:Work
         rdf:about=""><dc:format>image/svg+xml</dc:format><dc:type
           rdf:resource="http://purl.org/dc/dcmitype/StillImage" /><dc:title></dc:title></cc:Work></rdf:RDF></metadata><defs
     id="defs6"><clipPath
       id="clipPath18"
       clipPathUnits="userSpaceOnUse"><path
         id="path16"
         d="M 0,841.89 H 595.276 V 0 H 0 Z" /></clipPath><clipPath
       id="clipPath34"
       clipPathUnits="userSpaceOnUse"><path
         id="path32"
         d="M 0,841.89 H 595.276 V 0 H 0 Z" /></clipPath><clipPath
       id="clipPath220"
       clipPathUnits="userSpaceOnUse"><path
         id="path218"
         d="M 0,841.89 H 595.276 V 0 H 0 Z" /></clipPath><clipPath
       id="clipPath398"
       clipPathUnits="userSpaceOnUse"><path
         id="path396"
         d="M 0,841.89 H 595.276 V 0 H 0 Z" /></clipPath><clipPath
       id="clipPath602"
       clipPathUnits="userSpaceOnUse"><path
         id="path600"
         d="M 0,841.89 H 595.276 V 0 H 0 Z" /></clipPath><clipPath
       id="clipPath810"
       clipPathUnits="userSpaceOnUse"><path
         id="path808"
         d="M 0,841.89 H 595.276 V 0 H 0 Z" /></clipPath><clipPath
       id="clipPath1014"
       clipPathUnits="userSpaceOnUse"><path
         id="path1012"
         d="M 0,841.89 H 595.276 V 0 H 0 Z" /></clipPath><clipPath
       id="clipPath1138"
       clipPathUnits="userSpaceOnUse"><path
         id="path1136"
         d="M 0,841.89 H 595.276 V 0 H 0 Z" /></clipPath><clipPath
       id="clipPath1234"
       clipPathUnits="userSpaceOnUse"><path
         id="path1232"
         d="M 0,841.89 H 595.276 V 0 H 0 Z" /></clipPath><clipPath
       id="clipPath1278"
       clipPathUnits="userSpaceOnUse"><path
         id="path1276"
         d="M 0,841.89 H 595.276 V 0 H 0 Z" /></clipPath><clipPath
       id="clipPath1316"
       clipPathUnits="userSpaceOnUse"><path
         id="path1314"
         d="M 0,841.89 H 595.276 V 0 H 0 Z" /></clipPath><clipPath
       id="clipPath1360"
       clipPathUnits="userSpaceOnUse"><path
         id="path1358"
         d="M 0,841.89 H 595.276 V 0 H 0 Z" /></clipPath><clipPath
       id="clipPath1416"
       clipPathUnits="userSpaceOnUse"><path
         id="path1414"
         d="M 0,841.89 H 595.276 V 0 H 0 Z" /></clipPath></defs><g
     transform="matrix(1.3333333,0,0,-1.3333333,0,64.99998)"
     id="g10"><g
       transform="translate(-301.42422,-732.82891)"
       id="g1673"><g
         id="g36"
         transform="translate(442.78848,732.89534)"><path
           d="m 0,0 h -70.225 c -0.276,0 -0.5,0.224 -0.5,0.5 v 8.78 c 0,0.276 0.224,0.5 0.5,0.5 H 0 c 0.276,0 0.5,-0.224 0.5,-0.5 V 0.5 C 0.5,0.224 0.276,0 0,0"
           style="fill:#0f399c;fill-opacity:1;fill-rule:evenodd;stroke:none"
           id="path38" /></g><g
         id="g1629"><g
           transform="translate(331.20058,749.77624)"
           id="g190"><path
             id="path192"
             style="fill:#0f399c;fill-opacity:1;fill-rule:evenodd;stroke:none"
             d="m 0,0 c -6.578,1.546 -22.386,5.375 -27.712,13.844 -0.196,0.319 -0.687,0.172 -0.687,-0.197 V 13.549 C -27.957,1.915 -8.468,-3.142 0.27,-5.204 h 0.049 l 0.172,-0.024 c 0.049,0 0.122,0 0.171,0.024 0.418,0.172 0.908,0.32 1.375,0.442 0.688,0.172 1.424,0.32 2.136,0.344 0.785,0.074 1.546,0.074 2.503,-0.098 0.884,-0.172 1.89,-0.516 3.142,-1.056 0.712,-0.294 1.669,-0.613 2.7,-0.932 0.196,-0.049 0.368,0.147 0.295,0.343 C 10.947,-2.332 6.603,-1.546 0,0" /></g><g
           transform="translate(314.33828,742.58484)"
           id="g194"><path
             id="path196"
             style="fill:#0f399c;fill-opacity:1;fill-rule:evenodd;stroke:none"
             d="m 0,0 c 1.742,0.466 3.607,0.957 5.252,1.669 l 0.024,0.024 c 0.05,0.025 0.099,0.05 0.148,0.074 0.27,0.147 0.246,0.589 -0.073,0.687 -6.627,1.988 -12.641,4.885 -16.225,10.334 -0.221,0.319 -0.688,0.171 -0.688,-0.197 V 12.15 12.125 C -11.218,6.381 -7.389,3.19 0,0" /></g><g
           transform="translate(330.68498,752.96714)"
           id="g198"><path
             id="path200"
             style="fill:#0f399c;fill-opacity:1;fill-rule:evenodd;stroke:none"
             d="m 0,0 c 7.658,-1.841 14.138,-3.093 15.979,-8.271 0.049,-0.197 0.343,-0.222 0.442,-0.05 1.08,1.89 1.792,3.51 1.693,5.032 -0.122,1.62 -1.742,3.608 -5.449,4.762 -3.73,1.178 -5.302,1.473 -11.266,3.191 -5.817,1.644 -23.219,6.136 -28.84,14.678 -0.123,0.22 -0.443,0.122 -0.443,-0.123 l -0.024,-0.687 V 18.507 C -27.466,7.364 -7.879,1.89 0,0" /></g><g
           transform="translate(343.81678,757.87634)"
           id="g202"><path
             id="path204"
             style="fill:#0f399c;fill-opacity:1;fill-rule:evenodd;stroke:none"
             d="m 0,0 c 4.467,-1.129 9.548,-4.246 8.174,-9.523 -0.271,-0.982 -1.179,-3.584 -3.069,-5.67 -0.22,-0.222 -0.073,-0.59 0.197,-0.639 0.295,-0.024 0.54,-0.073 0.785,-0.098 0.859,-0.123 1.694,-0.295 2.479,-0.491 0.27,-0.049 0.565,0.025 0.761,0.221 5.965,6.161 7.266,14.85 -1.104,20.029 -7.07,4.394 -36.819,5.94 -48.6,19.685 -0.245,0.246 -0.663,0.098 -0.663,-0.245 V 21.895 C -40.966,10.751 -15.12,3.559 0,0" /></g><g
           transform="translate(359.35388,733.60094)"
           id="g206"><path
             id="path208"
             style="fill:#0f399c;fill-opacity:1;fill-rule:evenodd;stroke:none"
             d="m 0,0 -1.104,2.577 c -0.148,0.344 -0.417,0.614 -0.786,0.761 -2.062,0.859 -5.277,1.497 -7.83,1.89 -2.799,0.368 -7.265,1.424 -9.499,2.43 -2.184,0.957 -3.387,1.055 -4.59,0.982 -1.227,-0.098 -2.332,-0.368 -3.24,-0.859 -0.761,-0.368 -1.399,-0.859 -1.743,-1.547 -0.073,-0.147 -0.294,-0.147 -0.368,0 -0.343,0.688 -0.982,1.179 -1.742,1.547 -0.884,0.491 -2.013,0.761 -3.216,0.859 -1.227,0.073 -2.651,-0.098 -4.86,-1.08 -2.209,-0.957 -6.431,-1.964 -9.229,-2.332 -2.553,-0.368 -5.67,-1.031 -7.756,-1.865 -0.368,-0.148 -0.663,-0.393 -0.786,-0.786 l -0.908,-2.601 c -0.049,-0.197 0.074,-0.369 0.27,-0.369 H -0.27 c 0.197,0 0.343,0.197 0.27,0.393" /></g></g><text
         transform="scale(1,-1)"
         style="font-variant:normal;font-weight:bold;font-stretch:normal;font-size:6.73220015px;font-family:'Bw Modelica';-inkscape-font-specification:BwModelica-Bold;writing-mode:lr-tb;fill:#ffffff;fill-opacity:1;fill-rule:nonzero;stroke:none"
         id="text212"
         x="389.58658"
         y="-735.17682"><tspan
           id="tspan210"
           x="389.58658"
           y="-735.17682">ROMÂNIA</tspan></text>
<g
         id="g6175"
         style="fill:#0f399c;fill-opacity:1"
         transform="matrix(0.91925721,0,0,0.91925721,351.5023,83.212444)"><text
           transform="scale(1,-1)"
           y="-726.237"
           x="22.022877"
           id="text26-3"
           style="font-variant:normal;font-weight:bold;font-stretch:normal;font-size:14.55437469px;font-family:'Bw Modelica';-inkscape-font-specification:BwModelica-Bold;writing-mode:lr-tb;fill:#0f399c;fill-opacity:1;fill-rule:nonzero;stroke:none;stroke-width:2.16190457"><tspan
             id="tspan5327"
             y="-726.237"
             x="22.022877"
             style="font-style:normal;font-variant:normal;font-weight:800;font-stretch:normal;font-family:'Bw Modelica';-inkscape-font-specification:'Bw Modelica Ultra-Bold';fill:#0f399c;fill-opacity:1;stroke-width:2.16190457">MIȘCAREA DE REFORMĂ</tspan></text>
<text
           style="font-variant:normal;font-weight:bold;font-stretch:normal;font-size:11.17440224px;font-family:'Bw Modelica';-inkscape-font-specification:BwModelica-Bold;writing-mode:lr-tb;fill:#0f399c;fill-opacity:1;fill-rule:nonzero;stroke:none;stroke-width:1.65984404"
           id="text5352"
           x="22.852476"
           y="-741.64764"
           transform="scale(1,-1)"><tspan
             style="font-style:normal;font-variant:normal;font-weight:600;font-stretch:normal;font-family:'Bw Modelica';-inkscape-font-specification:'Bw Modelica Semi-Bold';fill:#0f399c;fill-opacity:1;stroke-width:1.65984404"
             x="22.852476"
             y="-741.64764"
             id="tspan5350">ADVENTIȘTI DE ZIUA A ȘAPTEA</tspan></text>
</g></g></g></svg>